<?xml version="1.0" encoding="utf-8"?>
<!-- Generator: Adobe Illustrator 23.0.1, SVG Export Plug-In . SVG Version: 6.00 Build 0)  -->
<svg version="1.1" id="Layer_1" xmlns="http://www.w3.org/2000/svg" xmlns:xlink="http://www.w3.org/1999/xlink" x="0px" y="0px"
	 viewBox="0 0 675.9 597" style="enable-background:new 0 0 675.9 597;" xml:space="preserve">
<style type="text/css">
	.st0{opacity:0.18;fill:#FA7D09;enable-background:new    ;}
	.st1{opacity:0.56;fill:url(#SVGID_1_);enable-background:new    ;}
	.st2{fill:#FA7D09;}
	.st3{fill:#4A3F35;}
	.st4{opacity:0.19;fill:url(#SVGID_2_);enable-background:new    ;}
	.st5{opacity:0.18;fill:#FFFFFF;enable-background:new    ;}
	.st6{fill:#2F2519;}
	.st7{fill:url(#SVGID_3_);}
	.st8{fill:url(#SVGID_4_);}
	.st9{fill:url(#SVGID_5_);}
	.st10{opacity:0.57;fill:#FFFFFF;enable-background:new    ;}
	.st11{fill:#3A312B;}
	.st12{fill:url(#SVGID_6_);}
	.st13{fill:url(#SVGID_7_);}
	.st14{fill:url(#SVGID_8_);}
	.st15{fill:url(#SVGID_9_);}
	.st16{fill:url(#SVGID_10_);}
	.st17{fill:url(#SVGID_11_);}
	.st18{fill:url(#SVGID_12_);}
	.st19{fill:url(#SVGID_13_);}
	.st20{fill:url(#SVGID_14_);}
	.st21{fill:url(#SVGID_15_);}
	.st22{fill:url(#SVGID_16_);}
	.st23{fill:url(#SVGID_17_);}
	.st24{fill:url(#SVGID_18_);}
</style>
<title>8. Content Digital</title>
<path class="st0" d="M87.2,273.9c-15.4,26.5-31,53.6-37.5,83.6s-2.4,63.9,17.9,86.9c11.5,12.9,27,21.4,42.3,29.5
	c71.2,38.2,144.6,77.1,224.9,86.5c44.8,5.2,90.2,1,133.2-12.4c47.1-14.7,93.6-43.6,111.7-89.5c8.6-22,10.1-46,14.7-69.1
	c11.4-57.6,41.9-118.6,16.3-171.4c-28-57.9-104.8-68-169.1-70.4c-80.7-3-163.7-6.4-243.5,9.2C134.3,169.3,118.2,220.5,87.2,273.9z"
	/>
<linearGradient id="SVGID_1_" gradientUnits="userSpaceOnUse" x1="349.7609" y1="-186.27" x2="332.8708" y2="163.4201" gradientTransform="matrix(1 0 0 -1 0 598)">
	<stop  offset="1.000000e-02" style="stop-color:#000000"/>
	<stop  offset="0.97" style="stop-color:#000000;stop-opacity:0"/>
</linearGradient>
<path class="st1" d="M540.6,504.1c8.1-1,12.9-14.5-69.3-11.2c-40-3.3-80.1-3.3-120.2-3.3c-100.8-0.1-238,6.7-338.8,6.6
	c-6,0-14.7,4-11.6,9.2c1.2,2,3.7,2.7,6,3.2c121.3,27.7,284.1,12.2,407.5,27.5c25.5,1.3,35.3,11.2-2.9,35.4
	c9.4,25.5,41.2,25.4,51.6,25.3l180.4-1.5c8-0.1,16.5-0.2,23.4-4.2s11.6-13.2,7.9-20.3c-3.3-6.3-11.4-8.2-18.6-9
	c-32.4-3.4-65.1,3-97.6,1c-28.7-1.8-51.9-12.3-78.3-22.3C467.1,535.8,459.3,514.7,540.6,504.1z"/>
<path class="st2" d="M620.2,20.5V362c0,11.3-9.1,20.5-20.4,20.5c0,0,0,0,0,0H26.6c-11.3,0-20.5-9.1-20.5-20.4c0,0,0,0,0,0V20.5
	C6.1,9.2,15.3,0,26.6,0h573.1C611.1,0,620.2,9.2,620.2,20.5z"/>
<path class="st3" d="M428,368.7c0,0,1.1,3.3,0,5.8c-1,2.6-1.9,5.3-2.6,8l-29.3-0.8c0,0-0.8-7.5,4.5-10.8s16.3-5.1,17.6-7.1
	L428,368.7z"/>
<linearGradient id="SVGID_2_" gradientUnits="userSpaceOnUse" x1="551.68" y1="176.2908" x2="716.32" y2="176.2908" gradientTransform="matrix(1 0 0 -1 -96.1 428)">
	<stop  offset="0" style="stop-color:#183866"/>
	<stop  offset="1" style="stop-color:#1A7FC1"/>
</linearGradient>
<path class="st4" d="M620.2,225.9V362c0,11.3-9.1,20.5-20.4,20.5c0,0,0,0,0,0H455.6V247.2c0-10.9,8.3-20.1,19.1-21.3
	c-1-1.1-1.9-2.3-2.8-3.6c-5.9-8.1-16.1-26.8-13-37.2c0.9-2.9,3.5-5.5,6.5-5.5c3.8,0,6.5,3.5,8.5,6.6l8.8,13.5c2,3.1,4.1,6.3,7.3,8.3
	c6.1,3.9,14.5,2,20.2-2.5c5.7-4.5,9.2-11.1,12.6-17.5l7.6-14.4c0.8-1.7,1.9-3.3,3.3-4.6c1.1-0.7,2.1-1.5,3.1-2.3
	c1.2-1.3,1.6-3.3,1.8-5.1l3.2-20.8c0.7-4.7,1.5-9.5,4-13.6s7.2-7.1,11.8-6.3c4.3,0.8,7.5,4.7,8.7,8.8s1,8.6,0.6,13l-1.7,22.6
	l4.4-0.4c2.1,5.6-1.1,11.7-1.4,17.7c-0.3,7,3.2,14.8-0.9,20.5c-2.8,3.8-8.5,5.6-9.4,10.2c-0.7,3.5,1.7,7.2,0.4,10.6
	c-0.3,0.7-0.6,1.3-1.1,1.8h60.9C619,225.8,619.6,225.8,620.2,225.9z"/>
<path class="st5" d="M596.8,318H172.1c-2.8,0-5.2-2.3-5.2-5.1l0,0c0-2.8,2.3-5.2,5.2-5.2l0,0h424.7c2.8,0,5.2,2.3,5.2,5.2l0,0
	C601.9,315.7,599.6,318,596.8,318z"/>
<path class="st6" d="M642,563.6H500.5c-4.1,0-2.6,15.1-5.8,13.1c-0.7-0.4-10-10.6-10.6-11.1c-5-3.9-4.9-16.5-4.9-23.3V303
	c0-11.8,9.6-21.4,21.4-21.4l0,0H642c14.7,0.6,18.9,10.8,19.1,11.8s9.4,17.5,9.4,18.6l-7.2,230.1C663.4,554,653.8,563.6,642,563.6
	C642,563.6,642,563.6,642,563.6z"/>
<path class="st2" d="M511.9,303.4h141.4c11.8,0,21.4,9.6,21.4,21.4v239.2c0,11.8-9.6,21.4-21.4,21.4H511.9
	c-11.8,0-21.4-9.6-21.4-21.4V324.8C490.5,313,500.1,303.4,511.9,303.4z"/>
<linearGradient id="SVGID_3_" gradientUnits="userSpaceOnUse" x1="583.4127" y1="199.51" x2="585.3027" y2="-61.16" gradientTransform="matrix(1 0 0 -1 0 428)">
	<stop  offset="2.000000e-02" style="stop-color:#FFFFFF;stop-opacity:0"/>
	<stop  offset="1" style="stop-color:#FFFFFF"/>
</linearGradient>
<path class="st7" d="M519.9,335H650c9.7,0,17.6,7.9,17.6,17.6v177.2c0,9.7-7.9,17.6-17.6,17.6H519.9c-9.7,0-17.6-7.9-17.6-17.6
	V352.6C502.3,342.9,510.2,335,519.9,335z"/>
<path class="st3" d="M493.8,405.8c0,0,2.5,2.4,2.8,5.1c0.4,2.8,0.9,5.5,1.5,8.2L472,432.4c0,0-4.3-6.2-1.3-11.6s11.8-12.3,12-14.7
	L493.8,405.8z"/>
<linearGradient id="SVGID_4_" gradientUnits="userSpaceOnUse" x1="2113.4438" y1="-1170.4901" x2="2095.9939" y2="-1163.7501" gradientTransform="matrix(0.8779 -0.4788 -0.4788 -0.8779 -1916.6389 385.7541)">
	<stop  offset="0" style="stop-color:#ECC4D7"/>
	<stop  offset="0.42" style="stop-color:#EFD4D1"/>
	<stop  offset="1" style="stop-color:#F2EAC9"/>
</linearGradient>
<polygon class="st8" points="481.5,398.6 483.2,408.4 493.7,407.2 492,397.1 "/>
<linearGradient id="SVGID_5_" gradientUnits="userSpaceOnUse" x1="407.8301" y1="557.02" x2="410.0201" y2="321.41" gradientTransform="matrix(1 0 0 -1 -96.1 428)">
	<stop  offset="1.000000e-02" style="stop-color:#000000"/>
	<stop  offset="0.97" style="stop-color:#000000;stop-opacity:0"/>
</linearGradient>
<path class="st9" d="M620.2,20.5v12H6.1v-12C6.1,9.2,15.3,0,26.6,0h573.1C611.1,0,620.2,9.2,620.2,20.5z"/>
<rect x="167.9" y="59.6" class="st10" width="296.6" height="231.1"/>
<path class="st3" d="M348.8,209.6c0,4.1-0.3,8.2-1.2,12.2c-1.6,6.8-5.6,12.7-9.6,18.5c-3.8-5.2-9.9-8.3-16.4-8
	c-9.3-0.4-18.5,1.1-27.7,2.9c-14.2,2.8-28.4,6.3-42.7,5.1c-7.3-0.7-14.4-2.6-21.6-2.8c-14.1-0.5-27.7,5.1-41.2,9.4
	c-2.1,0.7-5.1,0.9-5.9-1.2c-0.2-0.9-0.2-1.9,0.2-2.8c2.4-7.7,4.1-15.5,5.1-23.4c1.6-13.5,0.2-27.1-1.2-40.6
	c-1.5-14.7-3-29.5-5.1-44.1c-2.2-15.2-4.9-30.9-0.4-45.5c1.1-4,3.2-7.7,6-10.7c2.4-2.2,5.1-4,8.1-5.4c5.6-3,11.6-5.3,17.8-6.8
	c5.4-1.1,10.9-1.9,16.5-2.2l28.5-2.4c7.4-0.6,14.8-1.2,22.1,0.2c7.8,1.6,15,5.5,20.6,11.2c0.9,0.9,1.9,1.9,3.1,2.1
	c1.1,0,2.1-0.3,3-0.8c8.5-4.1,17.7-4,26.6-1.3c8.3,2.6,10.3,8.7,10.6,17.1c0.2,5.3,0.3,10.6,0.3,15.8c0,16.5-1,32.9-3,49.3
	c-1.2,9.5-2.6,19.4,0.7,28.4c1.6,4.2,4.2,8,5.5,12.3S348.9,204.9,348.8,209.6z"/>
<path class="st6" d="M348.8,209.6c0,4.1-0.3,8.2-1.2,12.2c-1.6,6.8-5.6,12.7-9.6,18.5c-3.8-5.2-9.9-8.3-16.4-8
	c-9.3-0.4-18.5,1.1-27.7,2.9l-34.2-10.7l7.5-55.8L298.8,96c0,0,33.5-16.8,41.3-3.6c1.5,2.5,3,7.3,4.4,13.5c0,16.5-1,32.9-3,49.3
	c-1.2,9.5-2.6,19.4,0.7,28.4c1.6,4.2,4.2,8,5.5,12.3S348.9,204.9,348.8,209.6z"/>
<rect x="22.7" y="59.6" class="st10" width="129.6" height="122.9"/>
<rect x="22.7" y="196.8" class="st10" width="129.6" height="122.9"/>
<path class="st5" d="M606.1,87.3H499.4c-2.8,0-5.1-2.3-5.1-5.2l0,0c0-2.8,2.3-5.1,5.1-5.1h106.7c2.8,0,5.2,2.3,5.2,5.2l0,0
	C611.3,85,609,87.3,606.1,87.3z"/>
<path class="st5" d="M606.1,115H499.4c-2.8,0-5.1-2.3-5.1-5.2l0,0c0-2.8,2.3-5.1,5.1-5.2h106.7c2.8,0,5.2,2.3,5.2,5.2l0,0
	C611.3,112.7,609,115,606.1,115z"/>
<path class="st5" d="M606.1,142.6H499.4c-2.8,0-5.1-2.3-5.1-5.2l0,0c0-2.8,2.3-5.1,5.1-5.1h106.7c2.8,0,5.2,2.3,5.2,5.1l0,0
	C611.3,140.3,609,142.6,606.1,142.6z"/>
<path class="st5" d="M606.1,170.3H499.4c-2.8,0-5.1-2.3-5.1-5.2l0,0c0-2.8,2.3-5.1,5.1-5.1h106.7c2.8,0,5.2,2.3,5.2,5.1l0,0
	C611.3,168,609,170.3,606.1,170.3z"/>
<path class="st5" d="M606.1,198H499.4c-2.8,0-5.1-2.3-5.1-5.2l0,0c0-2.8,2.3-5.1,5.1-5.1h106.7c2.8,0,5.2,2.3,5.2,5.1l0,0
	C611.3,195.7,609,198,606.1,198z"/>
<path class="st5" d="M606.1,225.6H499.4c-2.8,0-5.1-2.3-5.1-5.2l0,0c0-2.8,2.3-5.1,5.1-5.1h106.7c2.8,0,5.2,2.3,5.2,5.1l0,0
	C611.3,223.3,609,225.6,606.1,225.6z"/>
<path class="st11" d="M518.1,241.6c0,0-47.6,1.9-55.3,9.8s-42.2,105-42.2,105l16.9,6.3c0,0,35.1-68.8,38-72s40.8-2.2,53.5-6.9
	s26.4-18.8,26.4-18.8L518.1,241.6z"/>
<path class="st2" d="M547.1,179.1l-29,62.6c0,0,12.3,26,37.2,23.3l8.4-1.8l17.2-42.6l13.7-32.8c0,0,0.2-12.3-9.2-12.9
	S561.9,163.6,547.1,179.1z"/>
<linearGradient id="SVGID_6_" gradientUnits="userSpaceOnUse" x1="679.1913" y1="196.6121" x2="636.8113" y2="223.4521" gradientTransform="matrix(1 0 0 -1 -96.1 428)">
	<stop  offset="1.000000e-02" style="stop-color:#000000"/>
	<stop  offset="0.97" style="stop-color:#000000;stop-opacity:0"/>
</linearGradient>
<path class="st12" d="M547.1,179.1l-29,62.6c0,0,12.3,26,37.2,23.3l8.4-1.8l17.2-42.6l13.7-32.8c0,0,0.2-12.3-9.2-12.9
	S561.9,163.6,547.1,179.1z"/>
<path class="st3" d="M478.5,295.2l47.9-41.8l37.3,9.8c0,0-6.5,34.6-18.8,41S502.3,322,502.3,322l-7.5,77.8l-13.3,0.6
	c0,0-12.4-87.1-10.3-92.7S478.5,295.2,478.5,295.2z"/>
<linearGradient id="SVGID_7_" gradientUnits="userSpaceOnUse" x1="439.7006" y1="58.7915" x2="417.9306" y2="67.2015" gradientTransform="matrix(1 0 0 -1 0 428)">
	<stop  offset="0" style="stop-color:#ECC4D7"/>
	<stop  offset="0.42" style="stop-color:#EFD4D1"/>
	<stop  offset="1" style="stop-color:#F2EAC9"/>
</linearGradient>
<polygon class="st13" points="420.6,356.4 417.4,365.9 427.2,369.9 433.4,361.3 "/>
<path class="st2" d="M589.7,176.1c0,0,6.5,3.5,9.6,15.1s6.9,34.4,6.9,34.4L585.5,236l-4.6-35C580.9,201,580.3,181.9,589.7,176.1z"/>
<linearGradient id="SVGID_8_" gradientUnits="userSpaceOnUse" x1="709.2301" y1="223.0067" x2="675.3301" y2="221.5967" gradientTransform="matrix(1 0 0 -1 -96.1 428)">
	<stop  offset="1.000000e-02" style="stop-color:#000000"/>
	<stop  offset="0.97" style="stop-color:#000000;stop-opacity:0"/>
</linearGradient>
<path class="st14" d="M589.7,176.1c0,0,6.5,3.5,9.6,15.1s6.9,34.4,6.9,34.4L585.5,236l-4.6-35C580.9,201,580.3,181.9,589.7,176.1z"
	/>
<linearGradient id="SVGID_9_" gradientUnits="userSpaceOnUse" x1="785.6615" y1="128.0539" x2="669.0815" y2="173.0939" gradientTransform="matrix(1 0 0 -1 -96.1 428)">
	<stop  offset="0" style="stop-color:#ECC4D7"/>
	<stop  offset="0.42" style="stop-color:#EFD4D1"/>
	<stop  offset="1" style="stop-color:#F2EAC9"/>
</linearGradient>
<path class="st15" d="M601.9,298.4L585.5,236l16.5-8.3c0,0,11.9,68.5,12.6,69.2s8.6,4.3,17.6,7.2c10.1,3.3,1.5,4.3-7.1,4.5
	S604.6,310.3,601.9,298.4z"/>
<linearGradient id="SVGID_10_" gradientUnits="userSpaceOnUse" x1="697.8198" y1="264.2196" x2="647.2298" y2="283.7596" gradientTransform="matrix(1 0 0 -1 -96.1 428)">
	<stop  offset="0" style="stop-color:#ECC4D7"/>
	<stop  offset="0.42" style="stop-color:#EFD4D1"/>
	<stop  offset="1" style="stop-color:#F2EAC9"/>
</linearGradient>
<path class="st16" d="M561.4,129.9c0,0-6.8,16.2-8.6,16.7s1.9,3.4,1.9,3.4s-0.1,4.3,0,6s2.5,3,6.4,3.5s-1,13.2-1,13.2
	s-2.1,5,12.3,1.3l3.9-0.5c0,0,10.6-32.3,10.5-36S568.9,117.7,561.4,129.9z"/>
<path class="st3" d="M553.4,114.1c-1.3,2-1.4,4.6-0.3,6.7c0.7,1,1.4,2,2,3c0.2,0.7,0.5,1.5,0.9,2.2c0.8,1.2,2.3,1.4,3.6,1.5l7.4,0.5
	c1.9,0,3.8,0.4,5.5,1.3c3.5,2.2,4.1,7.7,3.2,12.1c-0.4,1.9-0.9,4.4,0.5,5.5c0.1-0.9,0.4-1.8,0.9-2.5c0.4-0.7,1.4-0.9,2.1-0.4l0,0
	l0.1,0.1c0.3,0.3,0.5,0.7,0.5,1.1c0.5,2.2-0.4,4.4-2.3,5.6c-0.5,0.3-1.2,0.5-1.5,1.1c-0.6,1.1,0.6,2.3,1.5,3.3
	c1.4,1.7,1.9,3.9,1.4,6.1c3.4-1.8,4-6.9,5.7-10.7s5.2-7,5.6-11.4c0.2-2.5-0.6-4.9-2.2-6.7c-0.6-0.5-1-1.1-1.2-1.8
	c0-0.8,0.1-1.6,0.4-2.4c0.5-2.5-1.7-4.6-3.7-5.9c-0.7-0.3-1.2-0.9-1.6-1.5c-1.7-3.7-1.5-5.2-5.6-6.3c-2.4-0.7-4.9-0.9-7.3-0.6
	c-3.5,0.6-4.8,1-8.1-0.8C558.3,111.7,555.4,111.2,553.4,114.1z"/>
<path class="st2" d="M560,172.6c0,0-13.9,1.7-25.5,15.1s-13.4,12.2-13.4,12.2l10.6,12.5C531.7,212.3,546.1,178.5,560,172.6z"/>
<linearGradient id="SVGID_11_" gradientUnits="userSpaceOnUse" x1="649.1177" y1="232.2551" x2="625.5778" y2="243.0851" gradientTransform="matrix(1 0 0 -1 -96.1 428)">
	<stop  offset="1.000000e-02" style="stop-color:#000000"/>
	<stop  offset="0.97" style="stop-color:#000000;stop-opacity:0"/>
</linearGradient>
<path class="st17" d="M560,172.6c0,0-13.9,1.7-25.5,15.1s-13.4,12.2-13.4,12.2l10.6,12.5C531.7,212.3,546.1,178.5,560,172.6z"/>
<linearGradient id="SVGID_12_" gradientUnits="userSpaceOnUse" x1="558.7354" y1="230.4135" x2="627.81" y2="230.4135" gradientTransform="matrix(1 0 0 -1 -96.1 428)">
	<stop  offset="0" style="stop-color:#ECC4D7"/>
	<stop  offset="0.42" style="stop-color:#EFD4D1"/>
	<stop  offset="1" style="stop-color:#F2EAC9"/>
</linearGradient>
<path class="st18" d="M531.7,212.3l-6.5,15.4c0,0-11.9,8.2-25.8-2S478.5,178,478.5,178s-7.1-7.1-14-9.3s6.7-5.9,14-3.3
	s8.5,1.8,8.5,1.8s3.4-3.4,5.3-2.7s-3.4,10.3-3.4,10.3s9.7,35.9,17.2,37.5s12.4,1.5,15.9-3l3.5-4.5L531.7,212.3z"/>
<path class="st2" d="M567.9,556.9h28.3c4.1,0,7.4,3.3,7.4,7.4v0c0,4.1-3.3,7.4-7.4,7.4h-28.3c-4.1,0-7.4-3.3-7.4-7.4v0
	C560.5,560.2,563.9,556.9,567.9,556.9z"/>
<linearGradient id="SVGID_13_" gradientUnits="userSpaceOnUse" x1="582.2233" y1="975.17" x2="581.9433" y2="1001.07" gradientTransform="matrix(1 0 0 1 0 -426)">
	<stop  offset="1.000000e-02" style="stop-color:#000000"/>
	<stop  offset="0.97" style="stop-color:#000000;stop-opacity:0"/>
</linearGradient>
<path class="st19" d="M567.9,556.9h28.3c4.1,0,7.4,3.3,7.4,7.4v0c0,4.1-3.3,7.4-7.4,7.4h-28.3c-4.1,0-7.4-3.3-7.4-7.4v0
	C560.5,560.2,563.9,556.9,567.9,556.9z"/>
<linearGradient id="SVGID_14_" gradientUnits="userSpaceOnUse" x1="355.3" y1="239.53" x2="56.14" y2="236.24" gradientTransform="matrix(1 0 0 -1 -96.1 428)">
	<stop  offset="1.000000e-02" style="stop-color:#000000"/>
	<stop  offset="0.97" style="stop-color:#000000;stop-opacity:0"/>
</linearGradient>
<path class="st20" d="M52.5,0c-3.2,0-29.8,0.9-29.8,32.5v349.6c-9.6-1.9-16.6-10.3-16.6-20.1V20.5C6.1,9.2,15.3,0,26.6,0H52.5z"/>
<path class="st2" d="M187.9,231.1l-20,10.6v49.1h220c0,0-20.3-57.5-102.3-63.1c-54.7-3.7-48.1-4.1-68.7-3.9
	C206.8,223.8,196.8,226.3,187.9,231.1z"/>
<linearGradient id="SVGID_15_" gradientUnits="userSpaceOnUse" x1="378.5594" y1="8.2299" x2="361.3194" y2="222.1099" gradientTransform="matrix(1 0 0 -1 -96.1 428)">
	<stop  offset="1.000000e-02" style="stop-color:#000000"/>
	<stop  offset="0.97" style="stop-color:#000000;stop-opacity:0"/>
</linearGradient>
<path class="st21" d="M175.5,290.7c0,0,5.5-41.9,49.9-48.1s97.7,6.6,105.3,10.7c39.1,20.9,37.8,37.4,37.8,37.4H175.5z"/>
<linearGradient id="SVGID_16_" gradientUnits="userSpaceOnUse" x1="391.1913" y1="412.3598" x2="354.9213" y2="178.3698" gradientTransform="matrix(1 0 0 -1 -96.1 428)">
	<stop  offset="0" style="stop-color:#ECC4D7"/>
	<stop  offset="0.42" style="stop-color:#EFD4D1"/>
	<stop  offset="1" style="stop-color:#F2EAC9"/>
</linearGradient>
<path class="st22" d="M301.5,212.3c-9.7,0-16.3-0.2-20.7,0.1c-8,0.4-9.3,2.2-9.8,8.1c-0.6,7.8,9.6,29.9,6.3,38.2
	c-0.5,1.6-1.9,2.7-3.5,3.1c0,0-38.8,0-65.6-37.3c0,0,18.9-18.8,17.1-45.3s-11.3-70.2-1.8-74.9s92.8-23.2,105.3,10.3
	S328.6,212.4,301.5,212.3z"/>
<path class="st3" d="M258.5,117.6c-3.5,9-3.1,19.2-3.8,29s-3.1,20.5-10.3,26c-1.6,1.2-3.4,2.2-4.7,3.9c-3.1,4.4-1,10.9-1.8,16.5
	c-1.4,10.5-12.3,15.1-17.9,23.6c-3.4,5.2-4.8,11.9-8.1,17.2s-10.1,8.9-14.6,4.9c-2.3-2.1-3.2-5.6-3.9-8.8
	c-9-40.3-11.6-81.7-7.9-122.8c1.3-14.8,4.7-31.7,16.2-38.7c4.5-2.8,9.7-3.5,14.8-4.3c29.4-4.2,61.3-7.9,86.5,10
	c2.3,1.6,4.6,3.6,5.8,6.4c5.9,14.7-17.4,13.8-23.5,15.4C274.5,98.7,263.4,105.2,258.5,117.6z"/>
<linearGradient id="SVGID_17_" gradientUnits="userSpaceOnUse" x1="357.6434" y1="224.7821" x2="404.8434" y2="148.8221" gradientTransform="matrix(1 0 0 -1 -96.1 428)">
	<stop  offset="0" style="stop-color:#ECC4D7"/>
	<stop  offset="0.42" style="stop-color:#EFD4D1"/>
	<stop  offset="1" style="stop-color:#F2EAC9"/>
</linearGradient>
<path class="st23" d="M277.3,258.7c-1,0.3-2.1,0.3-3,0c-2.1-0.6-3.5-2.4-4.8-4.1c-6.5-8.7-12.6-18.3-13.9-29.1
	c-0.5-4.2-0.1-8.8,2.8-11.8c2.4-2.4,5.9-3.3,9.2-3.7c3.2-0.4,2.5,0.3,9.5,0.6c1.3,0.1,13.4,0.9,14.5,1.6
	c-18.1,0.3-20.2,2.3-20.7,8.3C270.4,228.3,280.6,250.3,277.3,258.7z"/>
<linearGradient id="SVGID_18_" gradientUnits="userSpaceOnUse" x1="464.65" y1="157.028" x2="513.6137" y2="157.028" gradientTransform="matrix(1 0 0 -1 -96.1 428)">
	<stop  offset="0" style="stop-color:#ECC4D7"/>
	<stop  offset="0.42" style="stop-color:#EFD4D1"/>
	<stop  offset="1" style="stop-color:#F2EAC9"/>
</linearGradient>
<path class="st24" d="M368.5,290.7c0,0,14.2-27.1,23-29s11.7-8.9,17.8-10.3s6.8,3.1,8.1,13.5s-7.9,25.8-7.9,25.8L368.5,290.7z"/>
<path class="st2" d="M520.7,356.4h128c5.8,0,10.6,4.7,10.6,10.6v28.2c0,5.8-4.7,10.6-10.6,10.6h-128c-5.8,0-10.6-4.7-10.6-10.6V367
	C510.1,361.2,514.9,356.4,520.7,356.4z"/>
<path class="st2" d="M544.9,417.2h100.3c1.8,0,3.3,1.5,3.3,3.3v1.2c0,1.8-1.5,3.3-3.3,3.3H544.9c-1.8,0-3.3-1.5-3.3-3.3v-1.2
	C541.6,418.7,543.1,417.2,544.9,417.2z"/>
<path class="st2" d="M544.9,450.1h100.3c1.8,0,3.3,1.5,3.3,3.3v1.2c0,1.8-1.5,3.3-3.3,3.3H544.9c-1.8,0-3.3-1.5-3.3-3.3v-1.2
	C541.6,451.6,543.1,450.1,544.9,450.1z"/>
<path class="st2" d="M544.9,483.1h100.3c1.8,0,3.3,1.5,3.3,3.3v1.2c0,1.8-1.5,3.3-3.3,3.3H544.9c-1.8,0-3.3-1.5-3.3-3.3v-1.2
	C541.6,484.5,543.1,483.1,544.9,483.1z"/>
<path class="st2" d="M544.9,514.7h100.3c1.8,0,3.3,1.5,3.3,3.3v1.2c0,1.8-1.5,3.3-3.3,3.3H544.9c-1.8,0-3.3-1.5-3.3-3.3V518
	C541.6,516.2,543.1,514.7,544.9,514.7z"/>
</svg>
