<?xml version="1.0" encoding="utf-8"?>
<!-- Generator: Adobe Illustrator 23.0.1, SVG Export Plug-In . SVG Version: 6.00 Build 0)  -->
<svg version="1.1" id="Layer_1" xmlns="http://www.w3.org/2000/svg" xmlns:xlink="http://www.w3.org/1999/xlink" x="0px" y="0px"
	 viewBox="0 0 12 12" style="enable-background:new 0 0 12 12;" xml:space="preserve">
<style type="text/css">
	.st0{fill-rule:evenodd;clip-rule:evenodd;fill:url(#SVGID_1_);}
	.st1{enable-background:new    ;}
	.st2{fill:#2F2519;}
</style>
<linearGradient id="SVGID_1_" gradientUnits="userSpaceOnUse" x1="15.334" y1="7.75" x2="15.7788" y2="7.75" gradientTransform="matrix(1 0 0 -1 0 14)">
	<stop  offset="0.6308" style="stop-color:#FA7D09"/>
	<stop  offset="1" style="stop-color:#FA7D09"/>
</linearGradient>
<path class="st0" d="M11.6,5.9c0,2.6-2.4,4.7-5.3,4.7c-0.5,0-1.1-0.1-1.6-0.2c-0.4,0.2-1.2,0.5-2.8,0.8c-0.2,0-0.3-0.1-0.2-0.3
	c0.3-0.5,0.4-1.3,0.5-2c-0.8-0.9-1.3-2-1.3-3.1c0-2.6,2.4-4.7,5.3-4.7S11.6,3.4,11.6,5.9z"/>
<g class="st1">
	<path class="st2" d="M3.5,6.4V4.1h2v2.3c0,0.6,0.3,0.9,0.9,0.9S7.3,7,7.3,6.3V4.1h2v2.3c0,1.3-1.1,2-2.9,2C4.6,8.4,3.5,7.6,3.5,6.4
		z"/>
</g>
</svg>
