<?xml version="1.0" encoding="utf-8"?>
<!-- Generator: Adobe Illustrator 23.0.1, SVG Export Plug-In . SVG Version: 6.00 Build 0)  -->
<svg version="1.1" id="ef801be8-9fb2-4433-98fc-7ef75631d0fc"
	 xmlns="http://www.w3.org/2000/svg" xmlns:xlink="http://www.w3.org/1999/xlink" x="0px" y="0px" viewBox="0 0 881.4 697.5"
	 style="enable-background:new 0 0 881.4 697.5;" xml:space="preserve">
<style type="text/css">
	.st0{fill:#FFB9B9;}
	.st1{fill:#2F2519;}
	.st2{fill:#2F2E41;}
	.st3{fill:#4A3F35;}
	.st4{opacity:0.1;enable-background:new    ;}
	.st5{fill:#FA7D09;}
	.st6{fill:#E6E6E6;}
	.st7{fill:#FFFFFF;}
	.st8{opacity:0.15;enable-background:new    ;}
</style>
<polygon class="st0" points="277.2,365.8 286.1,393.1 298.2,383 291.8,361.3 "/>
<path class="st1" d="M162.7,249.4l3.2,42.6l76.9,1.9l33.7,76.9l18.4-7.6c0,0-21-72.5-30.5-95.4s-45.8-6.4-45.8-6.4l-3.2-6.4
	L162.7,249.4z"/>
<path class="st2" d="M282.3,388c0,0,1.3,20.3,3.2,21.6s16.5-1.3,16.5-1.3s4.4,1,22.3-3.8c20.1-5.4-2.5-13.4-2.5-13.4
	s-14.6-9.5-21-14s-10.8,5.1-10.8,5.1C291.2,386.1,282.3,388,282.3,388z"/>
<path class="st1" d="M791,470.4l2,70.9l21.6,83c0,0-4.7,14.2-1.3,17.5c3.4,3.4,18.9,9.4,18.9,9.4l-12.8-176.8L791,470.4z"/>
<path class="st1" d="M837.9,641.5c0,0,7.7,16.9-3.1,18.5c-10.8,1.5-60.6,5.6-57.5-3.1s40.6-16.9,40.6-16.9L837.9,641.5z"/>
<path class="st1" d="M866.6,407.7c0,0-8.1,43.9-13.5,51.3s2.7,61.4,2.7,61.4s12.1,77.6,6.7,89.7c-5.4,12.1-4,8.1-3.4,14.8
	s2,12.1,0,18.2s-2,5.4-2.7,8.8s0,21.6,0,21.6s-29,10.1-33.7-4.7c0,0,6.7-9.4,4.7-16.9c-2.1-7.5-3.2-15.2-3.4-22.9v-14.2l-31-116.1
	l-7.4-41.8c0,0,2-42.5,9.4-46.6C802.5,406.3,866.6,407.7,866.6,407.7z"/>
<path class="st1" d="M854.5,670.2c0,0,10.1,22.3-4,24.3c-14.2,2-79.6,7.4-75.6-4c4-11.5,53.3-22.3,53.3-22.3L854.5,670.2z"/>
<circle class="st0" cx="841.6" cy="186.4" r="27"/>
<path class="st0" d="M860.6,198.3l-0.5,34.5l-33.1,0.1c0,0,8.4-27,4.6-32.6S860.6,198.3,860.6,198.3z"/>
<path class="st3" d="M811.3,251.8c0,0,23.6-30.4,41.8-17.5s25,43.2,25,43.2l-4,85c0,0-10.1,12.1-4,20.2s9.4,6.1,4.7,12.1
	s-10.1,10.8-8.1,12.8s-2,3.4-2,3.4l-71.5,2c0,0,2-2.7-4-10.8c-6.1-8.1,1.3-18.9,0-22.9c-1.3-4-2.7,0.7-3.4-8.8
	C785,361.1,811.3,251.8,811.3,251.8z"/>
<path class="st0" d="M818,425.9c0,0-1.3,16.9-11.5,19.6c-3.8,1-6.6-0.9-8.7-3.7c-4-5.5-4.2-12.9-0.5-18.6l2.5-4L818,425.9z"/>
<path class="st3" d="M880.4,217.7c0,0,0.7,13.5,0,15.5s-1.3,4,0,6.1s0.7,8.8-0.7,9.4s2.7,6.7,1.3,10.8s-2.7,5.4-3.4,6.7
	s-1.8,3.8-1.8,3.8s-19.8-42.2-36-32.1c-16.2,10.1-29,13.5-29,13.5S819.7,204.2,880.4,217.7z"/>
<path class="st3" d="M851.1,249.1c0,0,21.6,2,20.2,30.4s2,72.9,2,72.9s-37.1,56.7-43.2,60.7c-6.1,4-6.7,3.4-6.1,6.7
	c0.7,3.4,1.3,6.1-1.3,8.8c-1.6,1.6-3.4,3-5.4,4c0,0-21.6-7.4-19.6-14.2s11.5-17.5,11.5-17.5s16.2-26.3,16.9-30.4
	c0.7-4,0.7-3.4,2.7-5.4s7.4-10.1,7.4-14.2v-12.8l-5.7-68.5c-0.5-5.6,1.4-11.2,5.3-15.4C839.1,250.9,843.9,248.2,851.1,249.1z"/>
<path class="st1" d="M824.2,165.6c-3.6,1-7.4,0.1-10.2-2.3c-2.6-2.5-3.5-6.8-1.6-10c1.6-2.7,4.8-4,7.8-4.9
	c6.6-2.1,13.5-3.1,20.4-3.1c3.3,0,6.8,0.3,9.6,2c1.4,0.8,2.6,2,4,2.9c2.5,1.6,5.6,2.1,8.4,3.2c5.8,2.3,10.3,7.1,12.3,13
	c0.6,2,1,4,1.2,6.1c0.5,5.7-0.5,11.4-2.9,16.6c-3.8,8.2-10.9,15.1-11.9,24.1c-3.9-3.2-5-8.7-8-12.7c-2.2-3-5.4-5.2-9-6.1
	c-1-0.1-2-0.6-2.7-1.2c-0.5-0.7-0.8-1.6-0.9-2.5l-1.9-13.3c-0.4-2.7-0.9-5.7-3-7.5c-1.3-1-2.8-1.6-4.4-1.9
	c-3.8-0.9-7.6-1.6-11.5-1.9"/>
<path class="st4" d="M870.1,362l-37.9,49.2C832.2,411.1,867.1,382,870.1,362z"/>
<polygon class="st4" points="833.7,307.6 834.1,354 812.1,387 830.1,350 "/>
<path class="st3" d="M603,285.5H373.6v-4.7h-104v4.7H39.2c-8.6,0-15.5,6.9-15.5,15.5v314.2c0,8.6,6.9,15.5,15.5,15.5H603
	c8.6,0,15.5-6.9,15.5-15.5c0,0,0,0,0,0V301.1C618.5,292.5,611.6,285.5,603,285.5L603,285.5L603,285.5z"/>
<rect x="44.5" y="313" class="st4" width="553.3" height="312.1"/>
<circle class="st5" cx="320.6" cy="298.8" r="5.7"/>
<rect x="45.4" y="312.8" class="st6" width="549.8" height="312"/>
<rect x="61.1" y="334.1" class="st7" width="518.3" height="271"/>
<rect x="108.2" y="362.2" class="st6" width="133.2" height="214.8"/>
<rect x="264.4" y="362.2" class="st5" width="111" height="59.1"/>
<rect x="264.4" y="437.8" class="st6" width="111" height="63.6"/>
<rect x="264.4" y="517.9" class="st6" width="111" height="59.1"/>
<rect x="399.1" y="362.2" class="st6" width="133.2" height="93.6"/>
<rect x="399.1" y="483.4" class="st5" width="133.2" height="93.6"/>
<path class="st3" d="M634.1,619.4h-54v-3.9c0-0.4-0.3-0.8-0.8-0.8c0,0,0,0,0,0h-18.5c-0.4,0-0.8,0.3-0.8,0.8l0,0l0,0v3.9h-11.6v-3.9
	c0-0.4-0.3-0.8-0.8-0.8l0,0h-18.5c-0.4,0-0.8,0.3-0.8,0.8l0,0l0,0v3.9h-11.6v-3.9c0-0.4-0.3-0.8-0.8-0.8c0,0,0,0,0,0h-18.5
	c-0.4,0-0.8,0.3-0.8,0.8l0,0l0,0v3.9h-11.6v-3.9c0-0.4-0.3-0.8-0.8-0.8c0,0,0,0,0,0h-18.5c-0.4,0-0.8,0.3-0.8,0.8l0,0l0,0v3.9h-11.6
	v-3.9c0-0.4-0.3-0.8-0.8-0.8c0,0,0,0,0,0h-18.5c-0.4,0-0.8,0.3-0.8,0.8c0,0,0,0,0,0l0,0v3.9h-11.6v-3.9c0-0.4-0.3-0.8-0.8-0.8
	c0,0,0,0,0,0h-18.5c-0.4,0-0.8,0.3-0.8,0.8l0,0l0,0v3.9h-11.6v-3.9c0-0.4-0.3-0.8-0.8-0.8l0,0h-145c-0.4,0-0.8,0.3-0.8,0.8l0,0l0,0
	v3.9h-11.6v-3.9c0-0.4-0.3-0.8-0.8-0.8l0,0h-18.5c-0.4,0-0.8,0.3-0.8,0.8v3.9h-11.6v-3.9c0-0.4-0.3-0.8-0.8-0.8l0,0h-18.5
	c-0.4,0-0.8,0.3-0.8,0.8l0,0l0,0v3.9h-11.6v-3.9c0-0.4-0.3-0.8-0.8-0.8l0,0h-18.5c-0.4,0-0.8,0.3-0.8,0.8l0,0l0,0v3.9h-11.6v-3.9
	c0-0.4-0.3-0.8-0.8-0.8h0H118c-0.4,0-0.8,0.3-0.8,0.8l0,0l0,0v3.9h-11.6v-3.9c0-0.4-0.3-0.8-0.8-0.8l0,0H86.4
	c-0.4,0-0.8,0.3-0.8,0.8l0,0v3.9H74.1v-3.9c0-0.4-0.3-0.8-0.8-0.8c0,0,0,0,0,0H54.8c-0.4,0-0.8,0.3-0.8,0.8l0,0l0,0v3.9H18.5
	C8.3,619.4,0,627.7,0,637.9l0,0v8.4c0,10.2,8.3,18.5,18.5,18.5h615.5c10.2,0,18.5-8.3,18.5-18.5v-8.4
	C652.6,627.7,644.3,619.4,634.1,619.4z"/>
<path class="st1" d="M138.3,78.6c-3.4,4.5-5.4,9.9-5.9,15.5c-0.7,6.8-2.7,17.7-8.5,23.5c-8.9,8.7-11.8,15.3-11.8,15.3l3,3.3
	c0-6.6,3.9-7.6,3.9-7.6l-1,7.6c26.6,25.1,85.6,2.2,85.6,2.2l-2-19.7c4.9,2.2,6.9,17.5,6.9,17.5l7.9-2.2c0,0-13.8-24-22.6-45.9
	s-22.6-16.4-22.6-16.4C154.9,62.9,144.2,71,138.3,78.6z"/>
<path class="st0" d="M230.8,89.8l9.5-62.3c0,0-10.2-24.8,7-27.3S253,30,253,30l-5.7,59.8H230.8z"/>
<path class="st0" d="M223.1,383c3.2,5.1,3.8,31.2,3.8,31.2l22.3-14l-6.4-22.9L223.1,383z"/>
<path class="st1" d="M192,246.2c0,0-28,0-43.2,8.9c-4.9,2.9-6.3,8-6,13.7c0.9,14.9,13,26.6,27.8,27.5l43,2.7
	c-6.4,17.8,8.3,87.1,8.3,87.1l22.9-3.2c0,0-3.2-23.5-2.5-24.8s6.4-50.9,2.5-76.9s-56-15.3-56-15.3L192,246.2z"/>
<path class="st1" d="M225.7,408.4c0,0-1.9,18.4-1.3,21s26.7,3.8,50.2-3.2s-3.2-14.6-3.2-14.6s-15.9-10.8-20.3-14.6
	s-10.8,5.1-10.8,5.1C239,407.8,225.7,408.4,225.7,408.4z"/>
<ellipse transform="matrix(0.1602 -0.9871 0.9871 0.1602 27.7293 255.4388)" class="st0" cx="164" cy="111.4" rx="22.9" ry="22.9"/>
<path class="st0" d="M154.4,128.6c8.3,12.1-1.9,19.1-1.9,19.1l-4.5,33.1c0,0,47.7,4.5,56-1.9s-9.5-27.3-15.9-29.3
	c-6.4-1.9-7.6-28-7.6-28L154.4,128.6z"/>
<path class="st5" d="M155.7,144.3l-25.1-3.9l-2.9,27c0,0,1.3,60.4,0,71.2s21.6,22.9,21.6,22.9s33.1-2.5,39.4-5.7s26.7,3.2,26.7,3.2
	c2.3,0.1,4.5-0.2,6.7-1c3.8-1.3-9.9-91.9-9.9-91.9l-12.1-28l-14.6,5.7l-4.5,21L155.7,144.3z"/>
<polygon class="st5" points="209.8,165.5 235.2,133 253,89.2 228.2,79.6 218,115.9 200.2,137.5 199.6,141.3 "/>
<path class="st0" d="M129.6,214.8l63,2.4c0,0,23.5-12.9,28,3.8s-29,9.1-29,9.1l-60,1.1L129.6,214.8z"/>
<path class="st5" d="M135,210.3l29.3,1.9l3.8,19.7c0,0-35.6-0.6-49.6-1.3s0-59.8,1.9-77.6s11.4-12.7,11.4-12.7l5.7,4.5L135,210.3z"
	/>
<polygon class="st8" points="140.1,203.9 165.6,214.1 137.6,208.4 135.7,172.2 "/>
<polygon class="st1" points="188.2,103.8 146.2,104.8 141.2,83.8 188.2,83.8 "/>
</svg>
